Coordinates
version=1
nRows=9
nColumns=24
inDegrees=yes

Units are S.I. units (second, meters, Newtons, ...)
Angles are in degrees.

endheader
time	pelvis_tilt	pelvis_list	pelvis_rotation	pelvis_tx	pelvis_ty	pelvis_tz	hip_flexion_r	hip_adduction_r	hip_rotation_r	knee_angle_r	ankle_angle_r	subtalar_angle_r	mtp_angle_r	hip_flexion_l	hip_adduction_l	hip_rotation_l	knee_angle_l	ankle_angle_l	subtalar_angle_l	mtp_angle_l	lumbar_extension	lumbar_bending	lumbar_rotation
      0.65000000	     -0.38564641	      5.49167155	     -0.53073456	     -0.75334835	      1.04801068	      0.32389979	     23.98880287	     -1.81087919	    -13.03133369	      0.73398053	     10.55233790	      0.22963731	     -0.14985860	    -18.57332559	      9.00460255	     -5.29456284	     -3.91985452	      7.17312484	      8.73072079	      0.30044410	      7.19255341	     -2.84165927	     -2.67730730
      0.65416667	     -0.23464368	      5.41582655	     -0.36859103	     -0.74754098	      1.04812972	      0.32392493	     23.72687383	     -1.77176763	    -13.17234707	      0.36248965	     10.73608389	      0.28625605	     -0.20743723	    -18.88480934	      8.83835568	     -5.09871488	     -4.23945988	      6.67331112	      8.75170052	      0.29608849	      7.03250108	     -2.90234168	     -2.84689649
      0.65833333	     -0.27040358	      5.35081529	     -0.33046006	     -0.74154838	      1.04789834	      0.32410826	     23.67511492	     -1.68608517	    -13.07347085	     -0.01607527	     10.71438711	      0.29841722	     -0.21116898	    -18.99956436	      8.72885679	     -5.04922866	     -4.59492246	      6.63403797	      8.73451105	      0.29684738	      7.05967516	     -2.86210987	     -2.86434182
      0.66250000	     -0.22951696	      5.31147566	     -0.23140203	     -0.73566770	      1.04782646	      0.32415057	     23.52012375	     -1.66459520	    -12.94130469	     -0.39610113	     10.73214769	      0.27697582	     -0.22270726	    -19.15636266	      8.62937026	     -5.07704047	     -4.99516882	      6.50669738	      8.68510113	      0.29921255	      7.14817596	     -2.70884495	     -2.92488773
      0.66666667	      0.08716681	      5.10278847	     -0.28193163	     -0.72952435	      1.04809784	      0.32447400	     22.99016181	     -1.39578068	    -12.49229277	     -0.62881552	     10.71843609	     -0.27880583	     -0.37400599	    -19.66421057	      8.38119475	     -5.24287148	     -5.26508732	      5.90365207	      8.52726831	      0.37405127	      6.76377242	     -2.46170454	     -3.40549733
      0.67083333	      0.08323612	      5.03841978	     -0.18872672	     -0.72348906	      1.04800686	      0.32460809	     22.85464080	     -1.33526325	    -12.37226138	     -0.97648445	     10.67996217	     -0.30853700	     -0.38487864	    -19.77035013	      8.24934169	     -5.21357350	     -5.68781315	      5.81664153	      8.51904242	      0.38191473	      6.86825931	     -2.38223125	     -3.42009487
      0.67500000	      0.10762422	      4.82247354	     -0.10890940	     -0.71696445	      1.04799179	      0.32482446	     22.58816039	     -1.09610479	    -12.15119898	     -1.17383961	     10.49549580	     -0.64704082	     -0.44089139	    -19.94823319	      7.94625013	     -5.32926854	     -6.03994216	      5.31913828	      8.54031694	      0.42619779	      6.98720027	     -2.09341957	     -3.54766931
      0.67916667	      0.12045564	      4.78588129	     -0.02862976	     -0.71100355	      1.04794416	      0.32500343	     22.42843976	     -1.06104151	    -11.99754701	     -1.50252907	     10.40274966	     -0.69579167	     -0.45168950	    -20.03516740	      7.84287453	     -5.33043808	     -6.51750010	      5.21017832	      8.52933327	      0.43841942	      7.04280328	     -2.02843440	     -3.57003208
      0.68333333	      0.36829154	      4.58054019	     -0.05000404	     -0.70483123	      1.04822352	      0.32557418	     21.89270521	     -0.76897301	    -11.27820004	     -1.55856452	      9.75040750	     -1.93286869	     -0.61408971	    -20.38590588	      7.55084014	     -5.67285314	     -6.93687281	      4.63066858	      8.69141203	      0.67560688	      6.67524418	     -1.80170981	     -3.89367543
